<?xml version="1.0" encoding="utf-8"?>
<!-- Generator: Adobe Illustrator 27.5.0, SVG Export Plug-In . SVG Version: 6.00 Build 0)  -->
<svg version="1.1" xmlns="http://www.w3.org/2000/svg" xmlns:xlink="http://www.w3.org/1999/xlink" x="0px" y="0px"
	 viewBox="0 0 500 500" style="enable-background:new 0 0 500 500;" xml:space="preserve">
<g id="Background_Simple">
	<g>
		<path style="fill:#B28DF9;" d="M456.706,249.702c-2.149-16.969-5.642-33.728-10.438-50.146
			c-12.784-43.764-38.988-131.222-45.927-137.169c-9.28-7.954-359.928,64.297-365.894,82.194
			c-5.966,17.897,6.628,294.306,17.234,302.923c10.606,8.617,404.339,3.314,416.933-7.954
			C478.429,430.769,463.691,304.866,456.706,249.702z"/>
		<path style="opacity:0.8;fill:#FFFFFF;" d="M456.706,249.702c-2.149-16.969-5.642-33.728-10.438-50.146
			c-12.784-43.764-38.988-131.222-45.927-137.169c-9.28-7.954-359.928,64.297-365.894,82.194
			c-5.966,17.897,6.628,294.306,17.234,302.923c10.606,8.617,404.339,3.314,416.933-7.954
			C478.429,430.769,463.691,304.866,456.706,249.702z"/>
	</g>
</g>
<g id="Clouds">
	<path style="fill:none;stroke:#FFFFFF;stroke-linecap:round;stroke-linejoin:round;stroke-miterlimit:10;" d="M457.392,104.584
		c0,0-2.387-12.53-13.127-14.32c-10.74-1.79-17.304,12.53-19.094,13.127c-1.79,0.597-3.58-4.177-9.547-1.79
		c-5.967,2.387-8.95,7.757-8.95,7.757s-2.387-3.58-6.564-2.984c-4.177,0.597-7.757,4.773-7.757,4.773h84.73
		c0,0-2.387-6.563-7.757-8.354C463.955,101.004,457.392,104.584,457.392,104.584z"/>
	<path style="fill:none;stroke:#263238;stroke-linecap:round;stroke-linejoin:round;stroke-miterlimit:10;" d="M86.257,198.572
		c0,0-2.072-10.879-11.397-12.433c-9.325-1.554-15.024,10.879-16.578,11.397c-1.554,0.518-3.108-3.626-8.289-1.554
		c-5.181,2.072-7.771,6.735-7.771,6.735s-2.072-3.108-5.699-2.59c-3.626,0.518-6.735,4.145-6.735,4.145h73.564
		c0,0-2.072-5.699-6.735-7.253C91.955,195.464,86.257,198.572,86.257,198.572z"/>
	<path style="fill:none;stroke:#FFFFFF;stroke-linecap:round;stroke-linejoin:round;stroke-miterlimit:10;" d="M193.337,35.614
		c0,0-1.628-8.545-8.952-9.766c-7.324-1.221-11.8,8.545-13.021,8.952c-1.221,0.407-2.441-2.848-6.511-1.221
		c-4.069,1.628-6.104,5.29-6.104,5.29s-1.628-2.441-4.476-2.035c-2.848,0.407-5.29,3.255-5.29,3.255h57.782
		c0,0-1.628-4.476-5.29-5.697C197.813,33.172,193.337,35.614,193.337,35.614z"/>
</g>
<g id="Arrows">
	<g>
		<path style="fill:#D4D4D4;" d="M140.474,50.176l-7.411,16.743l7.96-1.921c0,0-2.196,7.411,3.843,13.999
			c6.039,6.588,18.116,12.352,15.92,20.861c-2.196,8.509-7.96,13.724-6.862,23.88c1.098,10.156,10.979,18.39,10.979,18.39
			l9.332-10.43c0,0-9.332-6.039-5.764-16.743c3.568-10.705,6.745-20.563,0.549-30.742c-4.374-7.185-14.427-5.929-20.586-14.548
			c-3.231-4.522-1.921-6.039-1.921-6.039l7.411-2.196L140.474,50.176z"/>
		<path style="fill:#263238;stroke:#263238;stroke-linecap:round;stroke-linejoin:round;stroke-miterlimit:10;" d="M245.41,51.025
			l-12.352,8.783l6.039,1.647c0,0-6.862,7.411-4.941,16.194c1.921,8.784,17.292,18.665,18.116,25.253
			c0.823,6.588-5.764,16.469-5.764,16.469l11.254,3.843c0,0,7.686-15.646,4.666-24.978c-3.019-9.332-20.312-17.567-21.684-24.703
			c-1.372-7.137,3.019-11.803,3.019-11.803l4.666,0.549L245.41,51.025z"/>
		<path style="fill:#B28DF9;" d="M298.833,46.065l-10.882,1.462l3.315,3.094c0,0-6.9,2.435-8.632,8.713
			c-1.733,6.279,4.785,17.8,3.09,22.3c-1.695,4.501-9.253,8.611-9.253,8.611l5.917,6.261c0,0,10.206-7.435,11.421-14.436
			c1.214-7.001-7.091-18.115-5.563-23.153c1.529-5.038,5.918-6.547,5.918-6.547l2.806,1.927L298.833,46.065z"/>
		<path style="fill:#B28DF9;" d="M93.342,97.066l10.567-2.98l-1.814,4.156c0,0,7.299-0.506,11.383,4.569
			c4.084,5.074,2.677,18.237,6.02,21.694c3.343,3.457,11.912,4.229,11.912,4.229l-2.944,8.096c0,0-12.32-2.77-16.214-8.714
			s-0.686-19.441-4.09-23.458c-3.404-4.016-8.032-3.658-8.032-3.658l-1.81,2.882L93.342,97.066z"/>
	</g>
</g>
<g id="Leaves">
	<g>
		<path style="fill:#B28DF9;" d="M295.637,110.734c0,0-0.963-2.378,0.865-7.339c1.827-4.961,7.049-5.744,7.049-5.744
			s0.783,3.133-0.522,6.266C301.724,107.05,295.637,110.734,295.637,110.734z"/>
		<path style="fill:#263238;stroke:#263238;stroke-linecap:round;stroke-linejoin:round;stroke-miterlimit:10;" d="M136.55,86.244
			c0,0-2.545,0.321-6.872-2.716s-3.746-8.286-3.746-8.286s3.229,0.046,5.923,2.11C134.549,79.417,136.55,86.244,136.55,86.244z"/>
		<path style="fill:#B28DF9;" d="M108.511,149.883c0,0,1.419-2.137,6.545-3.43s8.721,2.575,8.721,2.575s-2.144,2.415-5.466,3.107
			C114.988,152.827,108.511,149.883,108.511,149.883z"/>
		<path style="fill:#B28DF9;" d="M221.396,46.097c0,0,1.463,2.107,0.773,7.349c-0.69,5.241-5.61,7.156-5.61,7.156
			s-1.454-2.883-0.871-6.227C216.27,51.031,221.396,46.097,221.396,46.097z"/>
	</g>
</g>
<g id="Hearts">
	<g>
		<g>
			<path style="fill:#263238;" d="M269.611,34.938c0,0-2.913-4.049-7.317-2.366c-2.828,1.08-5.645,4.726-3.895,8.856
				c1.751,4.13,10.389,11.32,10.389,11.32s12.004-6.226,12.448-14.028C281.579,32.71,274.3,29.694,269.611,34.938z"/>
			<polygon style="fill:#B28DF9;" points="274.283,40.27 270.781,40.27 270.781,36.768 267.863,36.768 267.863,40.27 264.361,40.27 
				264.361,43.188 267.863,43.188 267.863,46.69 270.781,46.69 270.781,43.188 274.283,43.188 			"/>
		</g>
		<g>
			<path style="fill:#263238;" d="M78.478,135.037c0,0-4.882-1.021-6.995,3.193c-1.357,2.706-0.975,7.298,3.104,9.163
				c4.079,1.865,15.306,1.339,15.306,1.339s4.654-12.696-0.284-18.752C85.804,125.314,78.398,128.002,78.478,135.037z"/>
			<polygon style="fill:#B28DF9;" points="85.524,135.817 82.941,138.181 80.577,135.597 78.424,137.567 80.788,140.15 
				78.204,142.514 80.174,144.667 82.757,142.303 85.121,144.887 87.274,142.917 84.91,140.334 87.494,137.97 			"/>
		</g>
		<g>
			<path style="fill:#263238;" d="M300.694,195.552c0,0,0.294-4.979-4.184-6.452c-2.876-0.946-7.362,0.105-8.609,4.414
				c-1.247,4.309,0.918,15.337,0.918,15.337s13.241,2.742,18.508-3.03C311.386,201.374,307.642,194.442,300.694,195.552z"/>
			<polygon style="fill:#B28DF9;" points="300.955,202.636 298.239,200.427 300.448,197.71 298.184,195.869 295.974,198.586 
				293.258,196.377 291.417,198.641 294.133,200.85 291.924,203.567 294.188,205.408 296.397,202.691 299.114,204.9 			"/>
		</g>
	</g>
</g>
<g id="Plants">
	<g>
		<g>
			<path style="fill:#B28DF9;" d="M188.622,77.3c0,0-2.247-2.247-5.431-2.809c-3.184-0.562-6.929-5.244-3.371-8.053
				c3.558-2.809,9.364,3.933,10.113,5.993s0.749,2.06,0.749,2.06s-1.686-8.24-0.749-12.547c0.936-4.307,7.678-3.745,7.865,1.311
				c0.187,5.056-2.435,9.551-2.435,9.551s3.933-4.869,6.929-5.993c2.996-1.124,6.742,2.996,5.244,5.806
				c-1.498,2.809-10.3,3.933-11.798,4.869C194.24,78.424,191.431,79.36,188.622,77.3z"/>
			<path style="fill:#263238;stroke:#263238;stroke-linecap:round;stroke-linejoin:round;stroke-miterlimit:10;" d="M188.622,77.3
				c0,0,1.124,3.933,3.184,4.12s3.933-3.933,3.933-3.933S190.12,77.3,188.622,77.3z"/>
			<path style="fill:#FFFFFF;stroke:#263238;stroke-linecap:round;stroke-linejoin:round;stroke-miterlimit:10;" d="M191.805,81.42
				c0,0-0.562,25.095,7.491,50.002"/>
			<g>
				<path style="fill:#263238;stroke:#263238;stroke-linecap:round;stroke-linejoin:round;stroke-miterlimit:10;" d="
					M192.367,95.091c0,0-2.435-2.622-5.056-5.805c-2.622-3.184-7.678-5.431-7.678-5.431s-0.936,5.993,3.371,9.364
					C187.311,96.589,192.367,95.091,192.367,95.091z"/>
				<path style="fill:#263238;stroke:#263238;stroke-linecap:round;stroke-linejoin:round;stroke-miterlimit:10;" d="
					M192.367,95.091c0,0,1.124-5.431,3.371-7.865c2.247-2.435,7.417-5.077,7.417-5.077s-0.488,4.702-2.361,9.01
					C198.922,95.465,192.367,95.091,192.367,95.091z"/>
			</g>
			<g>
				<path style="fill:#263238;stroke:#263238;stroke-linecap:round;stroke-linejoin:round;stroke-miterlimit:10;" d="
					M193.678,105.953c0,0-2.435-2.622-5.056-5.805c-2.622-3.184-7.678-5.431-7.678-5.431s-0.936,5.993,3.371,9.364
					C188.622,107.451,193.678,105.953,193.678,105.953z"/>
				<path style="fill:#263238;stroke:#263238;stroke-linecap:round;stroke-linejoin:round;stroke-miterlimit:10;" d="
					M193.678,105.953c0,0,0.562-3.745,2.809-6.18c2.247-2.435,7.979-6.762,7.979-6.762s-0.114,4.328-1.986,8.635
					C200.607,105.953,193.678,105.953,193.678,105.953z"/>
			</g>
			<g>
				<path style="fill:#263238;stroke:#263238;stroke-linecap:round;stroke-linejoin:round;stroke-miterlimit:10;" d="
					M195.925,119.624c0,0-0.749-1.498-3.371-4.682c-2.622-3.184-9.364-6.555-9.364-6.555s-0.749,7.491,3.558,10.862
					C191.056,122.62,195.925,119.624,195.925,119.624z"/>
				<path style="fill:#263238;stroke:#263238;stroke-linecap:round;stroke-linejoin:round;stroke-miterlimit:10;" d="
					M195.925,119.624c0,0,0.562-3.746,2.809-6.18c2.247-2.435,7.979-6.763,7.979-6.763s-0.301,4.702-2.173,9.01
					C202.667,119.998,195.925,119.624,195.925,119.624z"/>
			</g>
		</g>
		<g>
			<g>
				<path style="fill:#FFFFFF;stroke:#B28DF9;stroke-linecap:round;stroke-linejoin:round;stroke-miterlimit:10;" d="
					M259.148,197.08c0,0,16.567-16.36,22.286-36.48"/>
				<path style="fill:#B28DF9;" d="M279.977,165.224c0,0,4.116-2.372,3.974-7.32c-0.084-2.941-1.272-6.962-2.602-6.175
					c-1.33,0.787-2.807,3.456-3.324,6.207C277.3,161.797,279.977,165.224,279.977,165.224z"/>
				<g>
					<path style="fill:#B28DF9;" d="M276.274,173.167c0,0,1.189-5.169-0.558-7.536c-1.747-2.367-5.729-5.569-6.334-4.147
						c-0.605,1.422-0.105,5.501,1.074,8.04C271.634,172.063,276.274,173.167,276.274,173.167z"/>
					<path style="fill:#B28DF9;" d="M290.179,174.299c0,0-3.685-3.814-6.622-3.641c-2.937,0.174-7.792,1.767-6.93,3.049
						c0.863,1.283,4.555,3.087,7.325,3.484S290.179,174.299,290.179,174.299z"/>
				</g>
				<g>
					<path style="fill:#B28DF9;" d="M271.719,180.88c0,0,1.189-5.169-0.558-7.536c-1.747-2.367-5.729-5.569-6.334-4.147
						c-0.605,1.423-0.105,5.501,1.074,8.04C267.078,179.776,271.719,180.88,271.719,180.88z"/>
					<path style="fill:#B28DF9;" d="M285.623,182.012c0,0-3.685-3.814-6.622-3.641c-2.937,0.174-7.792,1.767-6.93,3.049
						c0.863,1.283,4.555,3.087,7.325,3.484C282.167,185.301,285.623,182.012,285.623,182.012z"/>
				</g>
				<g>
					<path style="fill:#B28DF9;" d="M266.816,187.888c0,0,1.188-5.169-0.558-7.536s-5.729-5.569-6.334-4.147
						c-0.605,1.423-0.105,5.502,1.074,8.04C262.175,186.785,266.816,187.888,266.816,187.888z"/>
					<path style="fill:#B28DF9;" d="M280.72,189.021c0,0-3.685-3.814-6.622-3.641c-2.937,0.174-7.792,1.767-6.93,3.049
						c0.863,1.283,4.555,3.087,7.325,3.484C277.264,192.309,280.72,189.021,280.72,189.021z"/>
				</g>
				<g>
					<path style="fill:#B28DF9;" d="M261.479,194.353c0,0,1.188-5.169-0.558-7.536s-5.729-5.569-6.334-4.147
						c-0.605,1.423-0.105,5.501,1.074,8.04C256.838,193.249,261.479,194.353,261.479,194.353z"/>
					<path style="fill:#B28DF9;" d="M275.383,195.485c0,0-3.685-3.814-6.622-3.641c-2.937,0.174-7.792,1.767-6.93,3.049
						c0.863,1.283,4.555,3.087,7.325,3.484C271.928,198.773,275.383,195.485,275.383,195.485z"/>
				</g>
			</g>
			<g>
				<path style="fill:#B28DF9;" d="M134.099,187.918c0,0-2.77,0.184-4.971,1.954c-2.201,1.77-7.433,1.538-7.233-2.417
					c0.201-3.955,7.973-3.892,9.758-3.199c1.785,0.693,1.785,0.693,1.785,0.693s-6.386-3.633-8.678-6.727
					c-2.293-3.094,1.956-7.202,5.387-4.416c3.431,2.786,4.877,7.096,4.877,7.096s-0.938-5.387,0.048-8.003
					c0.985-2.616,5.848-2.708,6.833-0.107c0.984,2.601-3.341,9.033-3.588,10.557C138.07,184.871,137.069,187.257,134.099,187.918z"
					/>
				<path style="fill:#263238;stroke:#263238;stroke-linecap:round;stroke-linejoin:round;stroke-miterlimit:10;" d="
					M134.099,187.918c0,0,3.231,1.524,4.54,0.278c1.308-1.246-0.322-4.848-0.322-4.848S134.961,186.933,134.099,187.918z"/>
				<path style="fill:#FFFFFF;stroke:#263238;stroke-linecap:round;stroke-linejoin:round;stroke-miterlimit:10;" d="
					M138.639,188.196c0,0,16.172,14.808,37.177,23.845"/>
				<g>
					<path style="fill:#263238;stroke:#263238;stroke-linecap:round;stroke-linejoin:round;stroke-miterlimit:10;" d="
						M147.948,195.692c0,0-3.124,0.092-6.725-0.017c-3.601-0.108-7.988,1.922-7.988,1.922s3.4,4.064,8.094,3.172
						S147.948,195.692,147.948,195.692z"/>
					<path style="fill:#263238;stroke:#263238;stroke-linecap:round;stroke-linejoin:round;stroke-miterlimit:10;" d="
						M147.948,195.692c0,0-2.923-3.863-3.231-6.741c-0.307-2.878,0.93-7.797,0.93-7.797s2.81,3.026,4.564,6.736
						C151.965,191.599,147.948,195.692,147.948,195.692z"/>
				</g>
				<g>
					<path style="fill:#263238;stroke:#263238;stroke-linecap:round;stroke-linejoin:round;stroke-miterlimit:10;" d="
						M155.842,201.08c0,0-3.124,0.092-6.725-0.017c-3.601-0.108-7.988,1.922-7.988,1.922s3.4,4.064,8.094,3.172
						S155.842,201.08,155.842,201.08z"/>
					<path style="fill:#263238;stroke:#263238;stroke-linecap:round;stroke-linejoin:round;stroke-miterlimit:10;" d="
						M155.842,201.08c0,0-2.139-2.524-2.446-5.402c-0.307-2.878,0.146-9.136,0.146-9.136s2.779,2.565,4.533,6.274
						C159.829,196.525,155.842,201.08,155.842,201.08z"/>
				</g>
				<g>
					<path style="fill:#263238;stroke:#263238;stroke-linecap:round;stroke-linejoin:round;stroke-miterlimit:10;" d="
						M166.121,207.468c0,0-1.416-0.37-5.017-0.478c-3.601-0.108-9.696,2.384-9.696,2.384s4.493,4.802,9.187,3.911
						S166.121,207.468,166.121,207.468z"/>
					<path style="fill:#263238;stroke:#263238;stroke-linecap:round;stroke-linejoin:round;stroke-miterlimit:10;" d="
						M166.121,207.468c0,0-2.139-2.524-2.446-5.402c-0.307-2.878,0.146-9.136,0.146-9.136s2.918,2.903,4.672,6.613
						C170.246,203.252,166.121,207.468,166.121,207.468z"/>
				</g>
			</g>
			<g>
				<path style="fill:#FFFFFF;stroke:#263238;stroke-linecap:round;stroke-linejoin:round;stroke-miterlimit:10;" d="
					M224.61,132.353c0,0,4.165,33.796-1.195,54.425"/>
				<g>
					<path style="fill:#B28DF9;" d="M224.07,122.577c0,0,1.888-6.978,4.362-6.158c2.474,0.819,2.931,7.571,2.935,9.631
						s-3.574,3.938-5.284,5.272C224.375,132.656,224.07,122.577,224.07,122.577z"/>
					<path style="fill:#B28DF9;" d="M225.804,150.342c0,0-8.976-2.392-10.412-7.461c-1.436-5.069,4.202-23.688,6.867-22.33
						c2.665,1.358,3.825,10.77,3.825,10.77s4.924-10.724,7.207-10.443s4.309,15.207,2.261,21.393
						C233.504,148.457,225.804,150.342,225.804,150.342z"/>
				</g>
				<path style="fill:#263238;" d="M224.375,184.892c0,0,1.814-13.384,6.423-19.548c4.609-6.165,18.042-22.031,18.042-22.031
					s-3.012,14.171-9.677,30.883C233.642,188.038,224.375,184.892,224.375,184.892z"/>
				<path style="fill:#263238;" d="M223.623,179.11c0,0-1.236-8.089-7.119-17.259c-5.882-9.17-14.244-17.77-14.244-17.77
					s3.308,23.135,7.97,29.352c4.662,6.218,13.791,12.393,13.791,12.393L223.623,179.11z"/>
			</g>
			<g>
				<path style="fill:#FFFFFF;stroke:#B28DF9;stroke-linecap:round;stroke-linejoin:round;stroke-miterlimit:10;" d="
					M192.764,194.843c0,0-14.158-28.657-37.902-44.805"/>
				<path style="fill:#B28DF9;" d="M160.256,153.935c0,0-1.311-6.388-7.821-8.342c-3.869-1.161-9.622-1.352-9.171,0.722
					c0.451,2.074,3.29,5.151,6.651,7.013C154.633,155.943,160.256,153.935,160.256,153.935z"/>
				<g>
					<path style="fill:#B28DF9;" d="M169.006,162.193c0,0-6.221-3.782-10.061-2.529c-3.84,1.253-9.733,5.059-8.141,6.462
						c1.592,1.403,7.123,2.514,10.941,2.076C165.562,167.763,169.006,162.193,169.006,162.193z"/>
					<path style="fill:#B28DF9;" d="M176.49,144.565c0,0-6.563,3.153-7.606,7.055c-1.043,3.902-1.066,10.917,0.978,10.347
						c2.044-0.57,5.991-4.601,7.705-8.04C179.282,150.488,176.49,144.565,176.49,144.565z"/>
				</g>
				<g>
					<path style="fill:#B28DF9;" d="M177.087,171.462c0,0-6.221-3.782-10.061-2.529c-3.84,1.253-9.733,5.059-8.141,6.462
						c1.592,1.403,7.123,2.514,10.941,2.076C173.643,177.032,177.087,171.462,177.087,171.462z"/>
					<path style="fill:#B28DF9;" d="M184.572,153.834c0,0-6.563,3.153-7.606,7.055c-1.043,3.902-1.066,10.917,0.978,10.347
						c2.044-0.57,5.991-4.601,7.705-8.04C187.363,159.758,184.572,153.834,184.572,153.834z"/>
				</g>
				<g>
					<path style="fill:#B28DF9;" d="M184.1,180.88c0,0-6.221-3.782-10.061-2.529c-3.84,1.253-9.733,5.059-8.141,6.462
						c1.592,1.403,7.123,2.514,10.941,2.076C180.656,186.45,184.1,180.88,184.1,180.88z"/>
					<path style="fill:#B28DF9;" d="M191.584,163.252c0,0-6.563,3.153-7.606,7.055c-1.043,3.902-1.066,10.917,0.978,10.347
						c2.044-0.57,5.991-4.601,7.705-8.04S191.584,163.252,191.584,163.252z"/>
				</g>
				<g>
					<path style="fill:#B28DF9;" d="M190.217,190.627c0,0-6.221-3.782-10.061-2.529c-3.84,1.253-9.733,5.059-8.141,6.462
						c1.592,1.403,7.123,2.514,10.941,2.076C186.773,196.197,190.217,190.627,190.217,190.627z"/>
					<path style="fill:#B28DF9;" d="M197.701,172.999c0,0-6.563,3.153-7.606,7.055c-1.043,3.902-1.066,10.917,0.978,10.347
						c2.044-0.57,5.991-4.601,7.705-8.04C200.493,178.923,197.701,172.999,197.701,172.999z"/>
				</g>
			</g>
		</g>
		<g>
			<path style="fill:#263238;" d="M269.231,136.689c0,0-0.602-3.698-3.26-6.428c-2.659-2.731-3.016-9.789,2.323-10.026
				c5.339-0.236,6.248,10.213,5.546,12.699c-0.703,2.487-0.703,2.487-0.703,2.487s4.064-9.044,7.927-12.519
				c3.863-3.475,9.925,1.706,6.621,6.673c-3.304,4.966-8.908,7.46-8.908,7.46s7.116-1.949,10.757-0.96
				c3.64,0.989,4.385,7.511,1.017,9.166s-12.562-3.333-14.641-3.47C273.831,141.634,270.499,140.595,269.231,136.689z"/>
			<path style="fill:#B28DF9;" d="M269.231,136.689c0,0-1.634,4.536,0.207,6.134c1.842,1.598,6.471-1.053,6.471-1.053
				S270.664,137.721,269.231,136.689z"/>
		</g>
	</g>
</g>
<g id="Character">
	<g>
		<path style="fill:#263238;stroke:#263238;stroke-linecap:round;stroke-linejoin:round;stroke-miterlimit:10;" d="M179.063,201.577
			c0,0-14.639,11.59-16.774,23.484s-1.22,13.419-2.745,17.384c-1.525,3.965-23.484,11.589-25.924,29.889
			s13.419,30.804,12.809,35.988c-0.61,5.185-9.15,16.164-5.795,40.563c3.355,24.399,48.493,27.449,77.162,26.229
			c28.669-1.22,87.531-16.164,97.291-35.379c9.759-19.214,7.32-36.903,3.965-44.223c-3.355-7.32-16.774-14.639-20.739-23.484
			c-3.965-8.845,3.355-15.554-1.83-32.329c-5.185-16.774-17.384-34.768-28.364-42.393c-10.98-7.625-22.569-10.064-43.308-10.98
			C204.072,185.413,183.028,199.442,179.063,201.577z"/>
		<g>
			<g>
				<path style="fill:#FFFFFF;stroke:#263238;stroke-linecap:round;stroke-linejoin:round;stroke-miterlimit:10;" d="
					M369.27,221.229c0,0-4.305-73.14-9.032-87.715c-4.727-14.575-9.454-32.696-9.454-32.696l27.546,1.445
					c0,0,9.454,37.029,19.302,66.574c9.848,29.544,13.787,46.877,13.787,46.877S375.967,222.41,369.27,221.229z"/>
				<path style="fill:#B28DF9;stroke:#263238;stroke-linecap:round;stroke-linejoin:round;stroke-miterlimit:10;" d="
					M403.733,187.942l-37.856,9.587c1.99,13.391,3.393,23.7,3.393,23.7c6.697,1.182,42.15-5.515,42.15-5.515
					S409.144,205.702,403.733,187.942z"/>
				<g>
					<path style="fill:#B28DF9;stroke:#263238;stroke-linecap:round;stroke-linejoin:round;stroke-miterlimit:10;" d="
						M202.245,357.527c0,0-44.908,0.788-61.846,11.424c-16.939,10.636-22.06,32.696-22.848,43.332
						c-0.788,10.636-0.394,61.059-0.394,61.059H336.18c0,0,2.758-32.302,4.727-49.635c1.97-17.333,2.364-21.666,2.364-21.666
						s52.786-52.786,63.422-71.695c10.636-18.909,16.545-39.787,16.939-44.908c0.394-5.121-6.572-63.702-9.454-70.907
						c-1.576-3.939-6.303-5.909-16.545-3.939c-10.242,1.97-25.605,2.758-29.151,6.303c-3.545,3.545,0.394,60.271,0.394,60.271
						s-4.727,0.394-3.151,2.364c1.576,1.97,1.576,4.333,1.576,4.333l-26.787,33.484c0,0-12.212,3.151-25.605,10.636
						c-13.393,7.485-26.787,20.878-26.787,20.878s-9.966,2.744-14.043,2.357C270.001,350.83,202.245,357.527,202.245,357.527z"/>
					<path style="fill:none;stroke:#263238;stroke-linecap:round;stroke-linejoin:round;stroke-miterlimit:10;" d="M396.516,288.18
						c1.917,0.145,3.875,0.164,5.844,0.016"/>
					<path style="fill:none;stroke:#263238;stroke-linecap:round;stroke-linejoin:round;stroke-miterlimit:10;" d="M371.634,279.923
						c0,0,10.052,6.349,22.353,7.991"/>
					<path style="fill:none;stroke:#263238;stroke-linecap:round;stroke-linejoin:round;stroke-miterlimit:10;" d="M370.058,285.439
						c0,0-1.182,8.666,16.939,13.393"/>
					
						<line style="fill:none;stroke:#263238;stroke-linecap:round;stroke-linejoin:round;stroke-miterlimit:10;" x1="343.271" y1="361.86" x2="343.271" y2="402.041"/>
					
						<line style="fill:none;stroke:#263238;stroke-linecap:round;stroke-linejoin:round;stroke-miterlimit:10;" x1="346.897" y1="374.764" x2="346.029" y2="381.163"/>
					
						<line style="fill:none;stroke:#263238;stroke-linecap:round;stroke-linejoin:round;stroke-miterlimit:10;" x1="350.362" y1="349.255" x2="347.341" y2="371.497"/>
					<path style="fill:none;stroke:#263238;stroke-linecap:round;stroke-linejoin:round;stroke-miterlimit:10;" d="M278.273,367.375
						c0,0-3.939,13.787-19.302,35.059"/>
					<path style="fill:none;stroke:#263238;stroke-linecap:round;stroke-linejoin:round;stroke-miterlimit:10;" d="M260.423,421.618
						c-1.212,2.31-2.486,4.6-3.815,6.816"/>
					<path style="fill:none;stroke:#263238;stroke-linecap:round;stroke-linejoin:round;stroke-miterlimit:10;" d="M274.334,388.253
						c0,0-4.67,14.789-12.115,29.837"/>
					
						<line style="fill:none;stroke:#263238;stroke-linecap:round;stroke-linejoin:round;stroke-miterlimit:10;" x1="162.853" y1="472.553" x2="161.671" y2="441.039"/>
				</g>
			</g>
			<g>
				<g>
					<path style="fill:#FFFFFF;stroke:#263238;stroke-linecap:round;stroke-linejoin:round;stroke-miterlimit:10;" d="
						M336.962,97.772c0,0-5.813,3.997-13.443,2.543c-7.63-1.453-11.626-0.363-9.446,3.996c2.18,4.36,10.9,5.813,15.623,6.903
						c4.723,1.09,16.713-1.453,16.713-1.453S343.138,94.502,336.962,97.772z"/>
					<path style="fill:#FFFFFF;stroke:#263238;stroke-linecap:round;stroke-linejoin:round;stroke-miterlimit:10;" d="
						M373.77,92.279c0,0,8.16,17.342,9.417,22.687c1.258,5.344,1.886,9.431-1.886,11.946c-3.772,2.515-12.26-1.886-16.662-4.716
						c-4.401-2.829-7.778-7.201-7.778-7.201s-1.653,3.115-8.569,1.228c-6.916-1.886-9.712-20.859-9.712-20.859
						S351.464,76.509,373.77,92.279z"/>
					<g>
						<g>
							<path style="fill:#263238;stroke:#263238;stroke-linecap:round;stroke-linejoin:round;stroke-miterlimit:10;" d="
								M400.418,181.258c-0.227-1.699-4.005-9.503-8.803-18.899l1.411-10.67c2.25-5.785,3.535-13.178,0-26.356
								c-3.535-13.178-16.624-24.356-31.498-26.034c-14.875-1.679-34.712-0.964-45.962,17.677c-10.555,17.491-0.643,33.105,0,36.962
								c0.643,3.857-1.928,13.178-10.928,12.535c-8.999-0.643-35.677-10.928-35.677-10.928l1.928,11.571
								c0,0,6.107,1.286,20.892,9.321c14.785,8.035,37.284,18.32,37.284,18.32s6.428,13.499,9,16.071
								c2.571,2.571,12.856,0.964,31.498-4.5C388.205,200.864,401.061,186.079,400.418,181.258z M383.705,146.546
								c-8.82-17.27-13.178-24.106-13.178-24.106l-48.533,18.321c0,0-4.781-11.84,0.964-21.213
								c6.107-9.964,20.249-12.535,30.855-12.535c10.607,0,26.356,9,30.855,18.963C389.169,135.939,383.705,146.546,383.705,146.546
								z"/>
							<polyline style="fill:none;stroke:#263238;stroke-linecap:round;stroke-linejoin:round;stroke-miterlimit:10;" points="
								321.994,140.761 316.852,142.689 321.351,156.831 							"/>
							
								<line style="fill:none;stroke:#263238;stroke-linecap:round;stroke-linejoin:round;stroke-miterlimit:10;" x1="383.705" y1="146.546" x2="387.562" y2="154.581"/>
							<g>
								<path style="fill:#FFFFFF;stroke:#263238;stroke-linecap:round;stroke-linejoin:round;stroke-miterlimit:10;" d="
									M268.961,155.545c0,0-9.964-6.75-13.499-8.035c-3.536-1.286,0,21.213,2.571,26.677s12.857-7.071,12.857-7.071
									L268.961,155.545z"/>
								<path style="fill:#FFFFFF;stroke:#263238;stroke-linecap:round;stroke-linejoin:round;stroke-miterlimit:10;" d="
									M258.033,174.187c0.408,0.866,1.01,1.277,1.733,1.361c3.077-12.081-4.304-28.038-4.304-28.038
									C251.926,146.225,255.462,168.723,258.033,174.187z"/>
							</g>
						</g>
					</g>
					<g>
						<path style="fill:#FFFFFF;stroke:#263238;stroke-linecap:round;stroke-linejoin:round;stroke-miterlimit:10;" d="
							M349.838,78.76c0,0-4.795-1.44-6.234-0.379c-1.439,1.061-14.766,9.379-15.212,13.353c-0.447,3.973,3.352,13.702,3.316,16.305
							c-0.035,2.603,4.657,4.386,6.062,2.194c1.405-2.192,0.81-14.868,0.81-14.868l12.041-5.541
							C350.622,89.824,354.53,80.543,349.838,78.76z"/>
						<path style="fill:#FFFFFF;stroke:#263238;stroke-linecap:round;stroke-linejoin:round;stroke-miterlimit:10;" d="
							M359.643,81.519c0,0-2.686-5.618-5.977-4.857c-3.291,0.761-11.802,13.077-13.93,17.249
							c-2.128,4.172,0.719,10.714,2.442,15.168c1.724,4.454,3.609,5.458,5.937,3.533c2.328-1.925,2.011-12.519,2.011-12.519
							l8.632-12.717C358.758,87.377,361.808,87.418,359.643,81.519z"/>
						<path style="fill:#FFFFFF;stroke:#263238;stroke-linecap:round;stroke-linejoin:round;stroke-miterlimit:10;" d="
							M367.804,85.477c0,0-2.55-5.334-5.674-4.611c-3.124,0.723-11.203,12.414-13.224,16.375c-2.02,3.961,0.682,10.171,2.318,14.4
							c1.637,4.229,3.427,5.182,5.637,3.354c2.21-1.828,1.909-11.884,1.909-11.884l8.194-12.072
							C366.964,91.038,369.859,91.077,367.804,85.477z"/>
						<path style="fill:#FFFFFF;stroke:#263238;stroke-linecap:round;stroke-linejoin:round;stroke-miterlimit:10;" d="
							M373.77,92.279c0,0-2.105-4.404-4.685-3.807c-2.579,0.597-9.25,10.249-10.918,13.519c-1.668,3.27,0.563,8.397,1.914,11.889
							c1.351,3.491,2.829,4.278,4.654,2.769c1.825-1.509,1.576-9.812,1.576-9.812l6.765-9.967
							C373.077,96.87,375.467,96.903,373.77,92.279z"/>
					</g>
				</g>
				<g>
					<path style="fill:#FFFFFF;stroke:#263238;stroke-linecap:round;stroke-linejoin:round;stroke-miterlimit:10;" d="
						M247.475,153.772c0,0-10.863-0.652-13.124,3.375C232.09,161.174,241.101,159.022,247.475,153.772z"/>
					<path style="fill:#FFFFFF;stroke:#263238;stroke-linecap:round;stroke-linejoin:round;stroke-miterlimit:10;" d="
						M222.211,174.956c0,0-10.474,2.954-11.286,7.5C210.113,187.002,217.916,182.009,222.211,174.956z"/>
					<path style="fill:#FFFFFF;stroke:#263238;stroke-linecap:round;stroke-linejoin:round;stroke-miterlimit:10;" d="
						M241.335,174.581c0,0-10.474,2.954-11.286,7.5C229.236,186.628,237.039,181.634,241.335,174.581z"/>
					<path style="fill:#FFFFFF;stroke:#263238;stroke-linecap:round;stroke-linejoin:round;stroke-miterlimit:10;" d="
						M229.084,159.7c0,0-10.859,0.712-12.599,4.99C214.746,168.968,223.417,165.706,229.084,159.7z"/>
					<path style="fill:#FFFFFF;stroke:#263238;stroke-linecap:round;stroke-linejoin:round;stroke-miterlimit:10;" d="
						M239.958,164.199c0,0-10.859,0.712-12.599,4.99C225.62,173.467,234.291,170.205,239.958,164.199z"/>
					<path style="fill:#FFFFFF;stroke:#263238;stroke-linecap:round;stroke-linejoin:round;stroke-miterlimit:10;" d="
						M256.082,163.075c0,0-10.859,0.712-12.599,4.99C241.743,172.342,250.414,169.08,256.082,163.075z"/>
					<path style="fill:#FFFFFF;stroke:#263238;stroke-linecap:round;stroke-linejoin:round;stroke-miterlimit:10;" d="
						M210.366,168.738c0,0-10.559,2.634-11.509,7.153S205.858,175.656,210.366,168.738z"/>
				</g>
			</g>
		</g>
		<g>
			<g>
				<path style="fill:#B28DF9;stroke:#263238;stroke-linecap:round;stroke-linejoin:round;stroke-miterlimit:10;" d="
					M212.536,332.649c0,0-11.672-1.326-13.529,0.796c-1.857,2.122,0.265,16.977,0,20.16c-0.265,3.183-3.183,9.019-0.531,12.998
					c2.653,3.979,18.303,11.937,38.994,11.672c20.691-0.265,34.219-10.08,37.403-15.651c3.183-5.571-0.796-10.08-0.796-11.407
					c0-1.326,1.061-11.406-1.592-16.181c-2.653-4.775-19.365-3.979-19.365-3.979L212.536,332.649z"/>
				<path style="fill:none;stroke:#263238;stroke-linecap:round;stroke-linejoin:round;stroke-miterlimit:10;" d="M210.512,338.366
					c0,0-9.382-2.534-7.791-3.065"/>
				<path style="fill:none;stroke:#263238;stroke-linecap:round;stroke-linejoin:round;stroke-miterlimit:10;" d="M260.284,338.75
					c0,0,8.754-2.122,8.754-3.183c0-1.061-3.714-0.796-3.714-0.796"/>
				<path style="fill:none;stroke:#263238;stroke-linecap:round;stroke-linejoin:round;stroke-miterlimit:10;" d="M229.571,360.659
					c7.672-1.262,20.11-4.031,27.265-9.441"/>
				<path style="fill:none;stroke:#263238;stroke-linecap:round;stroke-linejoin:round;stroke-miterlimit:10;" d="M222.882,361.563
					c0,0,1.374-0.126,3.609-0.437"/>
				<path style="fill:none;stroke:#263238;stroke-linecap:round;stroke-linejoin:round;stroke-miterlimit:10;" d="M263.202,352.544
					c0,0-12.998,5.836-17.508,7.427"/>
			</g>
			<path style="fill:#FFFFFF;stroke:#263238;stroke-linecap:round;stroke-linejoin:round;stroke-miterlimit:10;" d="
				M209.618,316.202l-0.265,20.956c0,0-1.061,2.122,18.303,3.449c19.365,1.326,32.628-1.857,32.628-1.857l-1.061-17.508
				L209.618,316.202z"/>
			<g>
				<path style="fill:#FFFFFF;stroke:#263238;stroke-linecap:round;stroke-linejoin:round;stroke-miterlimit:10;" d="
					M276.201,267.658c0,0,1.592-6.101,5.305-4.775c3.714,1.326,5.836,10.876,3.448,17.242c-2.387,6.367-8.223,13.263-8.223,13.263
					S276.466,275.351,276.201,267.658z"/>
				<path style="fill:#FFFFFF;stroke:#263238;stroke-linecap:round;stroke-linejoin:round;stroke-miterlimit:10;" d="
					M250.469,224.95c0,0-7.693,8.754-20.425,11.141c-12.733,2.387-16.977-1.592-23.609,1.857
					c-6.632,3.449-9.019,10.611-8.754,16.447c0.265,5.836,1.061,14.059-3.448,17.773c-4.51,3.714-4.51,3.714-4.51,3.714
					s-2.122-8.489-6.101-9.815c-3.979-1.326-11.141,3.183-10.611,12.733c0.531,9.55,7.958,18.834,11.141,20.16
					c3.183,1.326,8.489,1.857,8.489,1.857s11.672,16.181,21.221,23.078c9.55,6.897,27.588,12.733,36.607,8.223
					c9.019-4.509,22.813-15.651,25.996-26.527c3.183-10.876-0.265-25.466-0.265-31.567c0-6.101-0.27-17.16-0.27-17.16
					s-14.035-7.369-18.246-12.983C252.334,236.748,250.469,224.95,250.469,224.95z"/>
				<path style="fill:none;stroke:#263238;stroke-linecap:round;stroke-linejoin:round;stroke-miterlimit:10;" d="M240.655,258.374
					c0,0-1.061,10.876,0,15.385c1.061,4.51,8.223,11.406,6.897,15.385c-1.326,3.979-6.101,5.571-9.55,4.775
					s-3.449-0.796-3.449-0.796"/>
				<path style="fill:none;stroke:#263238;stroke-linecap:round;stroke-linejoin:round;stroke-miterlimit:10;" d="M222.351,300.552
					c0,0,7.428,7.162,18.303,5.836c10.876-1.326,13.794-7.427,13.794-7.427"/>
				<path style="fill:none;stroke:#263238;stroke-linecap:round;stroke-linejoin:round;stroke-miterlimit:10;" d="M225.269,271.372
					c0,0-8.488,7.162-17.773,1.061"/>
				<path style="fill:none;stroke:#263238;stroke-linecap:round;stroke-linejoin:round;stroke-miterlimit:10;" d="M264.794,267.393
					c0,0-8.489,7.162-17.773,1.061"/>
				<path style="fill:#263238;stroke:#263238;stroke-linecap:round;stroke-linejoin:round;stroke-miterlimit:10;" d="
					M203.783,261.823c0,0,2.653-5.836,9.019-8.223c6.366-2.387,13.529-1.061,14.059,0.265c0.531,1.326-1.061,1.592-6.101,2.122
					C215.719,256.517,207.231,257.844,203.783,261.823z"/>
				<path style="fill:#263238;stroke:#263238;stroke-linecap:round;stroke-linejoin:round;stroke-miterlimit:10;" d="
					M267.349,256.216c0,0-3.881-5.102-10.618-6.018c-6.737-0.916-13.427,1.966-13.65,3.377c-0.223,1.411,1.388,1.317,6.42,0.716
					C254.533,253.69,263.104,253.101,267.349,256.216z"/>
			</g>
		</g>
		<path style="fill:#263238;stroke:#263238;stroke-linecap:round;stroke-linejoin:round;stroke-miterlimit:10;" d="M146.243,304.663
			c0,0,3.175,3.81-1.587,9.208c-4.763,5.398-23.178,13.653-24.448,29.528c-1.27,15.875,5.08,26.353,13.97,34.609
			c8.89,8.255,14.288,6.985,9.208,15.241c-5.08,8.255-8.89,28.258,1.588,39.054c10.478,10.795,30.481,12.065,39.689,10.795
			c9.208-1.27,17.146-7.938,16.193-13.97c-0.952-6.033-12.383-8.255-9.843-15.876c2.54-7.62,17.146-19.686,11.748-36.196
			c-5.398-16.51-9.525-19.368-7.303-28.893c2.223-9.525,4.763-12.065,2.54-19.368"/>
	</g>
</g>
<g id="Line">
	<g>
		
			<line style="fill:none;stroke:#263238;stroke-linecap:round;stroke-linejoin:round;stroke-miterlimit:10;" x1="448.573" y1="473.341" x2="467.552" y2="473.341"/>
		
			<line style="fill:none;stroke:#263238;stroke-linecap:round;stroke-linejoin:round;stroke-miterlimit:10;" x1="30.755" y1="473.341" x2="443.191" y2="473.341"/>
	</g>
</g>
</svg>
