<svg width="426" height="117" viewBox="0 0 426 117" fill="none" xmlns="http://www.w3.org/2000/svg">
<path d="M151.128 94.152C145.944 94.152 141.112 93.32 136.632 91.656C132.216 89.928 128.376 87.496 125.112 84.36C121.848 81.224 119.288 77.544 117.432 73.32C115.64 69.096 114.744 64.456 114.744 59.4C114.744 54.344 115.64 49.704 117.432 45.48C119.288 41.256 121.848 37.576 125.112 34.44C128.44 31.304 132.312 28.904 136.728 27.24C141.144 25.512 145.976 24.648 151.224 24.648C157.048 24.648 162.296 25.672 166.968 27.72C171.704 29.704 175.672 32.648 178.872 36.552L168.888 45.768C166.584 43.144 164.024 41.192 161.208 39.912C158.392 38.568 155.32 37.896 151.992 37.896C148.856 37.896 145.976 38.408 143.352 39.432C140.728 40.456 138.456 41.928 136.536 43.848C134.616 45.768 133.112 48.04 132.024 50.664C131 53.288 130.488 56.2 130.488 59.4C130.488 62.6 131 65.512 132.024 68.136C133.112 70.76 134.616 73.032 136.536 74.952C138.456 76.872 140.728 78.344 143.352 79.368C145.976 80.392 148.856 80.904 151.992 80.904C155.32 80.904 158.392 80.264 161.208 78.984C164.024 77.64 166.584 75.624 168.888 72.936L178.872 82.152C175.672 86.056 171.704 89.032 166.968 91.08C162.296 93.128 157.016 94.152 151.128 94.152ZM205.353 93.768C199.849 93.768 194.953 92.616 190.665 90.312C186.441 88.008 183.081 84.872 180.585 80.904C178.153 76.872 176.937 72.296 176.937 67.176C176.937 61.992 178.153 57.416 180.585 53.448C183.081 49.416 186.441 46.28 190.665 44.04C194.953 41.736 199.849 40.584 205.353 40.584C210.793 40.584 215.657 41.736 219.945 44.04C224.233 46.28 227.593 49.384 230.025 53.352C232.457 57.32 233.673 61.928 233.673 67.176C233.673 72.296 232.457 76.872 230.025 80.904C227.593 84.872 224.233 88.008 219.945 90.312C215.657 92.616 210.793 93.768 205.353 93.768ZM205.353 81.48C207.849 81.48 210.089 80.904 212.073 79.752C214.057 78.6 215.625 76.968 216.777 74.856C217.929 72.68 218.505 70.12 218.505 67.176C218.505 64.168 217.929 61.608 216.777 59.496C215.625 57.384 214.057 55.752 212.073 54.6C210.089 53.448 207.849 52.872 205.353 52.872C202.857 52.872 200.617 53.448 198.633 54.6C196.649 55.752 195.049 57.384 193.833 59.496C192.681 61.608 192.105 64.168 192.105 67.176C192.105 70.12 192.681 72.68 193.833 74.856C195.049 76.968 196.649 78.6 198.633 79.752C200.617 80.904 202.857 81.48 205.353 81.48ZM237.923 93V21.768H252.899V93H237.923ZM261.038 93V21.768H276.014V93H261.038ZM309.785 93.768C303.897 93.768 298.713 92.616 294.233 90.312C289.817 88.008 286.393 84.872 283.961 80.904C281.529 76.872 280.313 72.296 280.313 67.176C280.313 61.992 281.497 57.416 283.865 53.448C286.297 49.416 289.593 46.28 293.753 44.04C297.913 41.736 302.617 40.584 307.865 40.584C312.921 40.584 317.465 41.672 321.497 43.848C325.593 45.96 328.825 49.032 331.193 53.064C333.561 57.032 334.745 61.8 334.745 67.368C334.745 67.944 334.713 68.616 334.649 69.384C334.585 70.088 334.521 70.76 334.457 71.4H292.505V62.664H326.585L320.825 65.256C320.825 62.568 320.281 60.232 319.193 58.248C318.105 56.264 316.601 54.728 314.681 53.64C312.761 52.488 310.521 51.912 307.961 51.912C305.401 51.912 303.129 52.488 301.145 53.64C299.225 54.728 297.721 56.296 296.633 58.344C295.545 60.328 295.001 62.696 295.001 65.448V67.752C295.001 70.568 295.609 73.064 296.825 75.24C298.105 77.352 299.865 78.984 302.105 80.136C304.409 81.224 307.097 81.768 310.169 81.768C312.921 81.768 315.321 81.352 317.369 80.52C319.481 79.688 321.401 78.44 323.129 76.776L331.097 85.416C328.729 88.104 325.753 90.184 322.169 91.656C318.585 93.064 314.457 93.768 309.785 93.768ZM363.916 93.768C358.348 93.768 353.388 92.648 349.036 90.408C344.684 88.104 341.26 84.936 338.764 80.904C336.332 76.872 335.116 72.296 335.116 67.176C335.116 61.992 336.332 57.416 338.764 53.448C341.26 49.416 344.684 46.28 349.036 44.04C353.388 41.736 358.348 40.584 363.916 40.584C369.356 40.584 374.092 41.736 378.124 44.04C382.156 46.28 385.132 49.512 387.052 53.736L375.436 59.976C374.092 57.544 372.396 55.752 370.348 54.6C368.364 53.448 366.188 52.872 363.82 52.872C361.26 52.872 358.956 53.448 356.908 54.6C354.86 55.752 353.228 57.384 352.012 59.496C350.86 61.608 350.284 64.168 350.284 67.176C350.284 70.184 350.86 72.744 352.012 74.856C353.228 76.968 354.86 78.6 356.908 79.752C358.956 80.904 361.26 81.48 363.82 81.48C366.188 81.48 368.364 80.936 370.348 79.848C372.396 78.696 374.092 76.872 375.436 74.376L387.052 80.712C385.132 84.872 382.156 88.104 378.124 90.408C374.092 92.648 369.356 93.768 363.916 93.768ZM411.785 93.768C405.705 93.768 400.969 92.232 397.577 89.16C394.185 86.024 392.489 81.384 392.489 75.24V29.928H407.465V75.048C407.465 77.224 408.041 78.92 409.193 80.136C410.345 81.288 411.913 81.864 413.897 81.864C416.265 81.864 418.281 81.224 419.945 79.944L423.977 90.504C422.441 91.592 420.585 92.424 418.409 93C416.297 93.512 414.089 93.768 411.785 93.768ZM384.521 54.024V42.504H420.329V54.024H384.521Z" fill="url(#paint0_linear_2_3)"/>
<path d="M10.944 93V25.8H36.096C41.792 25.8 46.688 26.728 50.784 28.584C54.88 30.376 58.016 33 60.192 36.456C62.432 39.848 63.552 43.976 63.552 48.84C63.552 53.576 62.432 57.672 60.192 61.128C58.016 64.52 54.88 67.144 50.784 69C46.688 70.792 41.792 71.688 36.096 71.688H14.88L18.048 68.424V93H10.944ZM56.832 93L39.552 68.616H47.232L64.608 93H56.832ZM18.048 69L14.88 65.64H35.904C42.624 65.64 47.712 64.168 51.168 61.224C54.688 58.28 56.448 54.152 56.448 48.84C56.448 43.464 54.688 39.304 51.168 36.36C47.712 33.416 42.624 31.944 35.904 31.944H14.88L18.048 28.584V69ZM89.727 93.48C84.479 93.48 79.871 92.392 75.903 90.216C71.935 87.976 68.831 84.936 66.591 81.096C64.351 77.192 63.231 72.744 63.231 67.752C63.231 62.76 64.287 58.344 66.399 54.504C68.575 50.664 71.519 47.656 75.231 45.48C79.007 43.24 83.231 42.12 87.903 42.12C92.639 42.12 96.831 43.208 100.479 45.384C104.191 47.496 107.103 50.504 109.215 54.408C111.327 58.248 112.383 62.696 112.383 67.752C112.383 68.072 112.351 68.424 112.287 68.808C112.287 69.128 112.287 69.48 112.287 69.864H68.415V64.776H108.639L105.951 66.792C105.951 63.144 105.151 59.912 103.551 57.096C102.015 54.216 99.903 51.976 97.215 50.376C94.527 48.776 91.423 47.976 87.903 47.976C84.447 47.976 81.343 48.776 78.591 50.376C75.839 51.976 73.695 54.216 72.159 57.096C70.623 59.976 69.855 63.272 69.855 66.984V68.04C69.855 71.88 70.687 75.272 72.351 78.216C74.079 81.096 76.447 83.368 79.455 85.032C82.527 86.632 86.015 87.432 89.919 87.432C92.991 87.432 95.839 86.888 98.463 85.8C101.151 84.712 103.455 83.048 105.375 80.808L109.215 85.224C106.975 87.912 104.159 89.96 100.767 91.368C97.439 92.776 93.759 93.48 89.727 93.48Z" fill="url(#paint1_linear_2_3)"/>
<defs>
<linearGradient id="paint0_linear_2_3" x1="116.546" y1="23.5" x2="427.823" y2="61.1239" gradientUnits="userSpaceOnUse">
<stop stop-color="#9600FF"/>
<stop offset="0.9999" stop-color="#A576FB"/>
<stop offset="1" stop-color="#AEBAF8"/>
</linearGradient>
<linearGradient id="paint1_linear_2_3" x1="2.05986" y1="23.5" x2="119.13" y2="28.7558" gradientUnits="userSpaceOnUse">
<stop stop-color="#9600FF"/>
<stop offset="0.9999" stop-color="#A576FB"/>
<stop offset="1" stop-color="#AEBAF8"/>
</linearGradient>
</defs>
</svg>
